HIERARCHY
ROOT Hips
{
  OFFSET 8.68985 56.5748 -157.536
  CHANNELS 6 Xposition Yposition Zposition Zrotation Xrotation Yrotation
  JOINT RightUpLeg
  {
    OFFSET -8.9458 -8.66707 0.101652
    CHANNELS 3 Zrotation Xrotation Yrotation
    JOINT RightLeg
    {
      OFFSET 0 -44.4227 1.3727
      CHANNELS 3 Zrotation Xrotation Yrotation
      JOINT RightFoot
      {
        OFFSET 0.253549 -42.0924 -1.46059
        CHANNELS 3 Zrotation Xrotation Yrotation
        JOINT RightToes
        {
          OFFSET 0.04 -4.41509 8.4991
          CHANNELS 3 Zrotation Xrotation Yrotation
          End Site
          {
            OFFSET -0.08 -0.137448 9.77979
          }
        }
      }
    }
  }
  JOINT Spine
  {
    OFFSET 0 11.8905 0
    CHANNELS 3 Zrotation Xrotation Yrotation
    JOINT Spine1
    {
      OFFSET 0 25.6574 0.127663
      CHANNELS 3 Zrotation Xrotation Yrotation
      JOINT HEad
      {
        OFFSET 0 8.73416 0.011341
        CHANNELS 3 Zrotation Xrotation Yrotation
        End Site
        {
          OFFSET -0.29 12.7742 2.51395
        }
      }
      JOINT LeftShoulder1
      {
        OFFSET 8.99 -0.362252 -0.22
        CHANNELS 3 Zrotation Xrotation Yrotation
        JOINT LeftArm
        {
          OFFSET 10.2827 -0.00338 0.322123
          CHANNELS 3 Zrotation Xrotation Yrotation
          JOINT LeftForeArm
          {
            OFFSET 32.7669 0.099144 -1.42434
            CHANNELS 3 Zrotation Xrotation Yrotation
            JOINT LeftHand
            {
              OFFSET 27.5643 0.085362 1.02216
              CHANNELS 3 Zrotation Xrotation Yrotation
              End Site
              {
                OFFSET 16.7443 -0.6 1.50291
              }
            }
          }
        }
      }
      JOINT RightShoulder
      {
        OFFSET -8.99 -0.362252 -0.22
        CHANNELS 3 Zrotation Xrotation Yrotation
        JOINT RightArm
        {
          OFFSET -10.2827 -0.00338 0.322123
          CHANNELS 3 Zrotation Xrotation Yrotation
          JOINT RightForeArm
          {
            OFFSET -32.8971 0.099144 -1.42434
            CHANNELS 3 Zrotation Xrotation Yrotation
            JOINT RightHand
            {
              OFFSET -27.4921 0.085362 1.02216
              CHANNELS 3 Zrotation Xrotation Yrotation
              End Site
              {
                OFFSET -16.6312 -0.6 1.50291
              }
            }
          }
        }
      }
    }
  }
  JOINT LeftUpLeg
  {
    OFFSET 8.9458 -8.66707 0.101652
    CHANNELS 3 Zrotation Xrotation Yrotation
    JOINT LeftLeg
    {
      OFFSET 0 -44.4227 1.3727
      CHANNELS 3 Zrotation Xrotation Yrotation
      JOINT LeftFoot
      {
        OFFSET -0.253549 -42.0924 -1.46059
        CHANNELS 3 Zrotation Xrotation Yrotation
        JOINT LeftToes
        {
          OFFSET -0.04 -4.41509 8.4991
          CHANNELS 3 Zrotation Xrotation Yrotation
          End Site
          {
            OFFSET 0.08 -0.047448 9.77979
          }
        }
      }
    }
  }
}
MOTION
Frames:	8
Frame Time:	0.0166667
44.52 91.3912 -122.111 -0.274789 0.729086 -17.6365 -9.34194 -7.96567 -9.54311 -21.4348 44.8135 15.1698 24.8991 0.0506047 0.88557 0.0462048 0.000533403 0.662642 -1.1795 17.2024 5.21507 -4.4543e-007 0.0143599 0.00196046 -16.5357 7.98571 25.071 0 3.18055e-015 -0 179.176 -47.6495 -163.278 -98.0954 54.1088 -36.0489 5.91641 19.3299 -0.68127 7.94452 6.24893 7.93886 103.758 -19.0866 91.9823 60.0005 55.3034 59.5098 -4.41221 20.5633 0.209126 -8.75996 -33.1815 6.41839 37.2368 30.5329 -31.9986 26.1437 -1.54824 0.752376 -1.32498e-009 1.56042e-007 -4.82885e-009 
43.5432 89.9927 -122.991 -0.204889 0.449406 -17.7106 -8.90933 -9.33274 -9.96222 -20.8943 50.3909 13.6313 15.996 -0.369737 0.25166 0.0462048 0.000533403 0.662642 -1.33325 17.9361 5.59436 -4.4543e-007 0.0143599 0.00196046 -16.2431 7.23072 24.4234 8.82781e-032 -3.18055e-015 1.59028e-015 178.769 -46.7575 -163.13 -99.9216 54.1538 -35.0368 6.05715 19.2511 -0.613749 7.74103 5.8667 7.44572 103.854 -19.8889 92.1117 61.0227 55.6866 59.5961 -4.49383 20.6166 0.096062 -6.32983 -34.5265 6.57669 35.2895 33.1048 -32.1074 31.6561 -1.17642 0.812594 -1.32497e-009 1.56042e-007 -4.82885e-009 
42.1053 88.0945 -124.261 -0.286375 0.380235 -17.7012 -9.27553 -11.3615 -10.4952 -19.9098 57.3868 11.3674 14.4623 -0.432039 0.600225 0.0462048 0.000533403 0.662642 -1.54758 18.5737 5.96755 -4.4543e-007 0.0143599 0.00196046 -15.8046 6.49986 23.8205 -0 0 1.59028e-015 178.421 -45.9746 -163.042 -101.621 54.0718 -33.9974 6.14536 19.2788 -0.460005 7.5085 5.51794 6.92608 103.995 -20.6291 92.21 62.0387 56.0639 59.6174 -4.52801 20.6081 0.00542109 -3.07089 -36.8719 6.13962 33.1686 37.2822 -32.4115 36.9683 -0.970298 1.1856 -1.32499e-009 1.56042e-007 -4.82885e-009 
40.1183 85.5582 -126.038 -0.643728 0.758002 -17.4964 -9.72316 -14.6171 -11.7528 -18.5784 66.3612 8.2439 9.12187 -1.68008 1.02499 0.0462048 0.000533403 0.662642 -1.81984 19.1028 6.33555 -4.4543e-007 0.0143599 0.00196046 -15.21 5.7964 23.289 7.95139e-016 6.36111e-015 -1.59028e-015 178.107 -45.3535 -163.087 -103.089 53.8696 -33.0241 6.15764 19.335 -0.300751 7.27175 5.16884 6.39341 104.153 -21.2707 92.2333 63.0076 56.4287 59.5805 -4.62935 20.6056 -0.0646986 1.27419 -40.5458 4.91198 30.6968 43.1271 -32.6624 41.9092 -0.902597 1.92916 -1.32497e-009 1.56042e-007 -4.82885e-009 
37.6702 82.4992 -128.25 -1.2432 1.53092 -17.1146 -10.6516 -18.4946 -13.5361 -12.7234 76.4547 -0.314792 3.26976 -3.58654 1.74193 0.0462048 0.000533403 0.662642 -2.15481 19.5156 6.69078 -4.4543e-007 0.0143599 0.00196046 -14.4628 5.14142 22.8581 -7.95139e-016 -6.36111e-015 -4.77083e-015 177.781 -44.9558 -163.343 -104.241 53.5692 -32.2096 6.10383 19.4915 -0.0916712 7.05255 4.79962 5.85593 104.296 -21.7814 92.1396 63.8839 56.7674 59.503 -4.74182 20.559 -0.121683 6.90489 -45.1778 3.14747 26.7634 50.0299 -31.794 46.464 -0.831835 2.8439 -1.32498e-009 1.56042e-007 -4.82885e-009 
34.9271 79.1119 -130.788 -2.05703 2.67092 -16.5905 -12.0853 -22.4517 -15.5421 9.97045 84.9066 -25.0632 0.652647 -6.21641 2.90571 0.0462048 0.000533403 0.662642 -2.50216 19.4162 6.77698 -4.4543e-007 0.0143599 0.00196046 -13.5976 4.86729 22.888 -0 0 3.18055e-015 177.121 -45.1889 -164.277 -105.019 53.205 -31.6297 5.97875 19.6955 0.0992586 6.87015 4.79711 5.59366 104.383 -22.1908 91.9129 64.6036 57.0547 59.4068 -4.91491 20.5154 -0.163443 12.9902 -50.3775 1.49991 21.9435 56.5449 -29.9802 50.5044 -0.580268 3.67828 -1.32498e-009 1.56042e-007 -4.82885e-009 
31.8448 75.7264 -133.694 -3.02183 4.1331 -15.9745 -14.296 -25.8255 -17.3266 111.857 83.6876 -128.127 -1.98444 -9.57282 3.77489 0.0462048 0.000533403 0.662642 -2.84306 18.8636 6.62098 -4.4543e-007 0.0143599 0.00196046 -12.6973 4.99104 23.3735 -0 -3.18055e-015 -0 175.812 -46.1003 -166.197 -105.332 52.8298 -31.5114 5.73003 20.2827 0.535543 6.72809 4.85631 5.56312 104.217 -22.4974 91.2811 65.0178 57.2248 59.4511 -5.06404 20.5508 -0.214663 20.4122 -55.1854 -0.334057 13.1824 61.5924 -24.0698 53.6377 -0.178024 4.48927 -1.32498e-009 1.56042e-007 -4.82885e-009 
28.6783 72.3521 -136.775 -4.10684 5.90401 -15.277 -16.8784 -28.5556 -18.6941 132.411 76.1969 -149.347 -4.23111 -13.451 4.47472 0.0462048 0.000533403 0.662642 -3.10133 17.9046 6.24838 -4.4543e-007 0.0143599 0.00196046 -11.8418 5.48548 24.2466 -1.59028e-015 -3.18055e-015 -0 173.769 -47.518 -169.111 -105.27 52.481 -31.7566 5.50834 20.5265 0.593337 6.62405 5.1833 5.91679 103.842 -22.784 90.5757 65.1179 57.2854 59.5594 -5.14245 20.4634 -0.288579 28.7094 -59.1079 -2.58165 1.83675 62.3145 -14.1326 54.6748 0.37759 5.30853 -1.32498e-009 1.56042e-007 -4.82885e-009 
